PathFileType	4	(X/Y/Z)	C:\Users\Basilio\Documents\Thesis Gigler\squatting_fais\c3dfiles\040\SJ_pre5\markers_experimental.trc
DataRate	CameraRate	NumFrames	NumMarkers	Units	OrigDataRate	OrigDataStartFrame	OrigNumFrames
200.000000	200.000000	4	62	mm	200.000000	291	1165
Frame#	Time	FHD			LBHD			RBHD			C7			T10			CLAV			LSHO			LUUPA			LMUPA			LDUPA			LLEP			LMEP			LRAD			LUL			LRFIN			RSHO			RUPA1			RMUPA			RDUPA			RLEP			RMEP			RRAD			RUL			RUFIN			LASI			RASI			USACR			LSACR			RSACR			LTHI1			LTHI2			LTHI3			LTHI4			LLFC			LMFC			LTIB1			LTIB2			LTIB3			LTIB4			LLMAL			LMMAL			LHEE			LMT1			LMT2			LMT5			RTHI			RTHI2			RTHI3			RTHI4			RLFC			RMFC			RTIB1			RTIB2			RTIB3			RTIB4			RLMAL			RMMAL			RHEE			RMT1			RMT2			RMT5			*61			
		X1	Y1	Z1	X2	Y2	Z2	X3	Y3	Z3	X4	Y4	Z4	X5	Y5	Z5	X6	Y6	Z6	X7	Y7	Z7	X8	Y8	Z8	X9	Y9	Z9	X10	Y10	Z10	X11	Y11	Z11	X12	Y12	Z12	X13	Y13	Z13	X14	Y14	Z14	X15	Y15	Z15	X16	Y16	Z16	X17	Y17	Z17	X18	Y18	Z18	X19	Y19	Z19	X20	Y20	Z20	X21	Y21	Z21	X22	Y22	Z22	X23	Y23	Z23	X24	Y24	Z24	X25	Y25	Z25	X26	Y26	Z26	X27	Y27	Z27	X28	Y28	Z28	X29	Y29	Z29	X30	Y30	Z30	X31	Y31	Z31	X32	Y32	Z32	X33	Y33	Z33	X34	Y34	Z34	X35	Y35	Z35	X36	Y36	Z36	X37	Y37	Z37	X38	Y38	Z38	X39	Y39	Z39	X40	Y40	Z40	X41	Y41	Z41	X42	Y42	Z42	X43	Y43	Z43	X44	Y44	Z44	X45	Y45	Z45	X46	Y46	Z46	X47	Y47	Z47	X48	Y48	Z48	X49	Y49	Z49	X50	Y50	Z50	X51	Y51	Z51	X52	Y52	Z52	X53	Y53	Z53	X54	Y54	Z54	X55	Y55	Z55	X56	Y56	Z56	X57	Y57	Z57	X58	Y58	Z58	X59	Y59	Z59	X60	Y60	Z60	X61	Y61	Z61	X62	Y62	Z62	

292	1.455	-90.20977020263673	1473.781372070313	-886.8704223632815	-205.8447570800782	1406.762329101563	-932.0172119140627	-259.6935729980469	1364.8544921875	-800.535583496094	-264.1429138183594	1286.708251953125	-852.412780761719	-433.2840881347657	1025.42578125	-855.7185668945315	-170.1169128417969	1172.58544921875	-835.7966308593752	-163.0662536621094	1229.333374023438	-1010.153015136719	-268.0201416015626	1161.252807617188	-1176.070556640625	-281.1970520019532	1113.975952148438	-1174.236083984375	-311.8223266601563	1131.66455078125	-1222.108032226563	-359.4261169433594	1109.49560546875	-1267.709838867188	-417.1506652832032	1143.951416015625	-1231.820434570313	-489.3464355468751	920.3535156250002	-1081.869506835938	-460.8169555664064	869.3577880859377	-1129.310791015625	-442.5527648925782	900.8221435546877	-1034.010986328125	-205.7290191650391	1222.499145507813	-668.2886962890626	-357.7012023925782	1207.348876953125	-534.7753295898439	-365.1862182617188	1158.817749023438	-521.0439453125001	-409.4409179687501	1187.829467773438	-490.905975341797	-458.9093627929689	1147.994506835938	-453.1427612304689	-516.6926269531251	1164.967163085938	-515.8006591796876	-459.7986755371095	931.025817871094	-639.4652709960939	-459.4996948242189	885.3877563476565	-578.6729125976564	-405.3732910156251	896.3101806640627	-674.8372802734376	-391.1489257812501	807.8834228515627	-953.7342529296877	-394.0473632812501	808.8885498046877	-738.6948852539064	-527.5079956054689	930.2024536132815	-850.2049560546877	-553.9368896484376	909.6854248046877	-878.449401855469	-553.9360961914064	909.7544555664065	-821.9255981445315	-418.2488708496095	628.6031494140626	-1078.818969726563	-339.6964416503907	607.9997558593751	-1105.945190429688	-307.3803405761719	642.0493774414064	-1102.222778320313	-315.2404479980469	552.4368286132814	-1105.510620117188	-216.5555572509766	480.5312500000001	-1121.5400390625	-208.3506011962891	443.4398193359376	-1007.395263671875	-248.1469268798829	265.9076843261719	-1109.544677734375	-332.7025146484376	265.4313354492188	-1143.664184570313	-296.3099975585938	240.6874084472657	-1132.607543945313	-319.8661193847657	162.022216796875	-1107.872924804688	-416.633514404297	102.6276168823242	-1122.831298828125	-369.9584350585938	103.123275756836	-1044.550537109375	-474.4800720214845	44.81176376342774	-1077.340576171875	-251.5838165283204	58.81252288818361	-1097.360229492188	-262.2567749023438	57.59180068969728	-1142.903686523438	-315.9219970703126	34.14389419555665	-1182.858520507813	-382.0296325683594	646.2317504882814	-608.9912719726564	-319.4248962402344	624.5819702148439	-595.8034057617189	-292.7380065917969	644.5036010742189	-602.9962768554689	-294.0349121093751	543.7415161132814	-592.7327270507814	-220.3943023681641	456.7872924804689	-582.2603149414064	-207.6358489990235	441.127899169922	-707.8808593750001	-246.3908081054688	274.5874328613282	-602.9194946289064	-350.4943542480469	245.8914337158204	-586.9745483398439	-311.9266052246094	220.8547668457032	-594.0970458984376	-318.9589843750001	170.7827911376953	-626.8195190429689	-421.4302062988282	99.42317199707034	-611.2632446289064	-388.1055908203126	101.9163589477539	-695.8601074218751	-482.4396972656251	48.17871856689455	-671.6831665039064	-262.0223388671876	55.25366973876955	-632.0347290039064	-273.6473999023438	58.75742721557619	-594.1871948242189	-325.0623474121094	33.87046813964844	-549.9398803710939	nan	nan	nan	
293	1.46	-86.84384918212892	1461.932373046875	-886.2822265625002	-203.0123291015626	1395.236328125	-931.232360839844	-256.9377441406251	1353.669921875	-799.7844238281252	-261.8438415527344	1276.480102539063	-851.887390136719	-433.8394775390626	1016.505126953125	-855.286071777344	-168.9188690185547	1160.897094726563	-835.5464477539065	-161.1506958007813	1218.101806640625	-1010.021179199219	-267.1391906738282	1151.341430664063	-1175.269897460938	-280.7868041992188	1104.298217773438	-1173.510131835938	-310.9968872070313	1122.396118164063	-1221.674438476563	-358.9639892578126	1100.993408203125	-1267.210205078125	-416.3030700683595	1136.005981445313	-1231.503540039063	-491.0472412109376	913.2133789062502	-1081.240844726563	-463.0183410644532	861.7368774414065	-1128.834716796875	-444.594940185547	893.1506958007815	-1033.380859375	-203.7122650146485	1211.673706054688	-667.9090576171876	-356.3969421386719	1197.869873046875	-534.6679687500001	-364.4554748535157	1150.001831054688	-521.0488891601564	-408.250213623047	1179.515502929688	-491.1456909179689	-457.918914794922	1139.992553710938	-453.3760681152345	-515.6889038085939	1157.44189453125	-516.1635742187501	-461.1438598632814	923.1231689453127	-639.8296508789064	-461.1683654785157	877.1892089843752	-578.7490844726564	-406.5291748046876	887.9175415039065	-674.9629516601564	-393.2197875976564	799.4839477539065	-953.8469238281252	-395.0295410156251	801.1820068359377	-739.0803833007814	-530.3242187500001	922.495788574219	-849.9683837890627	-556.5698242187501	901.2033691406252	-878.2596435546877	-556.4243774414064	901.038024902344	-821.520446777344	-418.5188598632814	622.0375366210939	-1078.98876953125	-339.9313659667969	603.2066650390626	-1106.562744140625	-308.2525024414063	637.8707885742189	-1103.247436523438	-314.0969543457032	547.9782714843751	-1106.346313476563	-214.2162322998047	478.3255310058595	-1123.33837890625	-204.8572235107422	444.0315856933595	-1008.997680664063	-246.0667419433594	263.9760742187501	-1110.622802734375	-331.1991882324219	264.3078613281251	-1144.304931640625	-294.6672363281251	239.2821655273438	-1133.351318359375	-318.7653503417969	161.3696746826172	-1108.181274414063	-416.2505187988282	102.3759841918946	-1122.662475585938	-369.6246337890626	102.8612823486328	-1044.551513671875	-474.3464965820314	44.77731704711915	-1077.28271484375	-251.6444244384766	58.61106872558595	-1097.499267578125	-262.2154541015626	57.39006805419923	-1143.052856445313	-316.0366821289063	34.02447128295899	-1183.030395507813	-382.8414611816407	639.2837524414064	-608.4632568359376	-320.0825805664063	618.6964721679689	-594.7926025390626	-293.4205627441407	638.7600097656251	-601.6579589843751	-293.3295898437501	538.3447875976564	-592.2985229492189	-217.6672973632813	454.3646240234376	-580.6614990234376	-204.3325958251954	439.2745056152345	-706.3800048828126	-244.6603393554688	272.6464538574219	-602.1480712890626	-349.4209289550782	244.617904663086	-586.5113525390626	-310.8000793457032	219.5335083007813	-594.0276489257814	-318.5277709960938	169.5966033935547	-626.5416259765626	-421.9273376464845	99.0315856933594	-611.8596191406251	-387.8029174804689	101.6987915039063	-695.9432373046876	-482.4047241210939	48.15575027465822	-671.8056030273439	-262.0186767578126	55.15158081054689	-631.9196777343751	-274.4312133789063	58.4176712036133	-594.6989135742189	-325.0581970214844	33.86044311523438	-549.8148193359376	nan	nan	nan	
294	1.465	-83.52798461914064	1450.975952148438	-885.959167480469	-200.4954071044922	1384.063354492188	-930.6481933593752	-254.6199035644532	1342.619995117188	-799.0833129882815	-259.8718261718751	1266.350830078125	-851.4981689453127	-434.410614013672	1007.646423339844	-854.8292236328127	-167.6633453369141	1149.894409179688	-835.489196777344	-159.3380279541016	1206.735473632813	-1009.623718261719	-265.9314575195313	1141.364990234375	-1174.889404296875	-280.6482238769532	1094.313354492188	-1172.597778320313	-310.4569091796876	1113.271850585938	-1221.052856445313	-358.3201293945313	1092.171997070313	-1266.7802734375	-415.3909912109376	1128.065185546875	-1230.956176757813	-491.9544067382814	905.2805786132815	-1080.644409179688	-465.2208557128907	854.4629516601565	-1128.506713867188	-446.349334716797	885.5186767578127	-1032.87060546875	-202.1748809814454	1200.34765625	-667.7231445312501	-354.6624450683594	1188.4384765625	-534.7727661132814	-363.6117553710938	1140.384155273438	-521.0029296875001	-407.1153564453126	1170.8154296875	-491.0776672363282	-457.2603454589845	1131.595092773438	-453.301483154297	-514.8706665039064	1149.652221679688	-516.3953857421876	-462.2460327148439	914.906188964844	-639.9756469726564	-462.4356994628907	869.1571044921877	-578.6440429687501	-408.5017395019532	879.5533447265627	-675.0499267578126	-394.7176208496095	791.3951416015627	-954.2664184570315	-397.1257934570314	793.295349121094	-739.2516479492189	-532.2562866210939	913.0987548828127	-849.6861572265627	-558.8405761718751	892.5059204101565	-878.018249511719	-558.9818115234376	892.3695068359377	-821.3750610351565	-418.8322143554689	615.5132446289064	-1078.8974609375	-339.7669067382813	598.3316650390626	-1107.2578125	-309.0788879394532	633.6056518554689	-1104.108764648438	-312.9008483886719	543.7313232421876	-1107.228393554688	-212.3105010986329	476.3071899414064	-1125.315551757813	-201.3970642089844	442.2254943847657	-1010.226501464844	-245.1022491455079	263.1882324218751	-1111.325073242188	-329.8643188476563	263.4253845214844	-1145.043334960938	-293.3896179199219	238.0754547119141	-1134.127685546875	-318.2423400878907	160.4661865234375	-1108.792236328125	-416.0710449218751	102.2058029174805	-1122.876342773438	-369.3813476562501	102.6674194335938	-1044.727294921875	-474.334442138672	44.77640533447266	-1077.378784179688	-251.6907501220704	58.53025054931642	-1097.77783203125	-262.2073669433594	57.19689941406251	-1143.316772460938	-316.3629150390626	34.15161132812501	-1183.346313476563	-383.5783386230469	632.5281982421876	-607.9920043945314	-320.4252014160157	612.8754882812501	-593.9803466796876	-294.4475708007813	634.0429687500001	-599.6895751953126	-292.5714721679688	533.1588745117189	-592.0372314453126	-215.7246856689454	452.143280029297	-578.8035278320314	-201.4115753173829	437.4586181640626	-705.0124511718751	-243.7467193603516	270.7638244628907	-601.1888427734376	-348.5726013183594	243.863998413086	-585.9081420898439	-310.1035156250001	218.2341461181641	-593.3037109375001	-317.8683471679688	168.6487731933594	-626.2742309570314	-421.8748779296876	98.90490722656253	-611.9169311523439	-387.5744934082032	101.6402282714844	-696.1044921875001	-482.3997192382814	48.17513275146486	-671.8579711914064	-261.7266845703126	56.77867889404298	-631.9942016601564	-274.5091857910157	58.19875335693361	-594.5371704101564	-325.1242065429688	33.79040527343751	-549.7687988281251	nan	nan	nan	
295	1.47	-82.27608489990236	1440.212890625	-885.600280761719	-198.4452819824219	1373.277465820313	-930.0346679687502	-251.9929504394532	1331.383666992188	-798.5764160156252	-257.7825622558594	1256.283203125	-851.1463012695315	-435.0036010742189	999.009460449219	-854.4218750000002	-166.9095001220703	1138.367309570313	-835.200134277344	-157.7406768798828	1195.921142578125	-1009.301513671875	-265.1752624511719	1131.581420898438	-1174.141845703125	-280.4818420410157	1084.71337890625	-1172.115966796875	-309.7620239257813	1103.656616210938	-1220.419555664063	-357.7733764648438	1083.3125	-1266.386108398438	-414.344696044922	1119.740844726563	-1230.791137695313	-493.6962280273439	898.0313110351565	-1080.2705078125	-467.2347717285157	847.0706787109377	-1127.848754882813	-448.3574218750001	877.9182128906252	-1032.37255859375	-200.5624237060547	1189.218383789063	-667.5029907226564	-353.4910888671876	1178.77978515625	-534.4902343750001	-362.5512695312501	1131.114379882813	-521.0770263671876	-405.798309326172	1161.501220703125	-491.548797607422	-456.3047180175782	1123.676513671875	-453.4024353027345	-513.7219848632814	1141.8505859375	-516.3454589843751	-462.8338317871095	906.523132324219	-639.7935180664064	-464.0613098144532	861.0371704101565	-578.7947387695314	-409.7752990722657	870.9526977539065	-675.3765258789064	-396.7202758789064	783.193786621094	-954.3955688476565	-399.3700256347657	785.9241333007815	-738.9630126953126	-534.4386596679689	904.7451171875002	-849.4997558593752	-560.1096801757814	883.854187011719	-877.2932739257815	-563.5722045898439	884.2886352539065	-821.8796386718752	-418.9376220703126	609.1794433593751	-1079.05126953125	-339.5278625488282	593.2045898437501	-1107.260498046875	-309.5881042480469	629.4238891601564	-1104.9736328125	-311.7607116699219	539.4398803710939	-1107.964233398438	-210.1636199951172	474.1807556152345	-1127.03759765625	-199.3697967529297	440.8166809082032	-1011.818237304688	-243.7415313720704	261.6924133300782	-1112.519287109375	-328.5716247558594	262.7203674316407	-1146.044677734375	-292.7968444824219	237.1934814453126	-1134.943237304688	-317.8403625488282	159.6305389404297	-1109.80322265625	-415.9588928222657	102.0446701049805	-1123.073852539063	-369.3036499023438	102.5261764526367	-1044.962524414063	-474.2695312500001	44.68114089965821	-1077.528076171875	-251.5671844482422	58.292537689209	-1098.024291992188	-262.3119201660157	56.99442672729494	-1143.592529296875	-316.3935546875001	33.83828353881837	-1183.694580078125	-384.2388305664064	625.7348632812501	-607.6796875000001	-321.0709533691407	607.4771728515626	-593.0747680664064	-294.9357299804688	628.7318725585939	-598.5082397460939	-291.1336669921876	527.2910156250001	-591.8839111328126	-213.784652709961	449.7842712402345	-577.2716674804689	-196.410873413086	437.3870544433595	-703.8876953125001	-242.1192474365235	269.3699645996094	-600.4416503906251	-347.5092773437501	242.9304962158204	-585.2402954101564	-309.2073059082032	217.2537078857422	-592.3666381835939	-317.4332275390626	167.8801574707032	-625.8629150390626	-421.7211914062501	98.7184753417969	-612.0757446289064	-387.3100891113282	101.5180206298828	-696.1159057617189	-482.3423156738282	48.13916397094728	-671.9214477539064	-261.7098083496094	56.75148773193361	-631.8510131835939	-274.6169738769532	58.30177688598634	-594.3370971679689	-325.1763305664063	33.71184158325196	-549.6479492187501	nan	nan	nan	
